<?xml version="1.0" encoding="utf-8" standalone="no"?>
<!DOCTYPE svg PUBLIC "-//W3C//DTD SVG 1.1//EN"
  "http://www.w3.org/Graphics/SVG/1.1/DTD/svg11.dtd">
<svg xmlns:xlink="http://www.w3.org/1999/xlink" width="1008pt" height="518.4pt" viewBox="0 0 1008 518.4" xmlns="http://www.w3.org/2000/svg" version="1.1">
 <metadata>
  <rdf:RDF xmlns:dc="http://purl.org/dc/elements/1.1/" xmlns:cc="http://creativecommons.org/ns#" xmlns:rdf="http://www.w3.org/1999/02/22-rdf-syntax-ns#">
   <cc:Work>
    <dc:type rdf:resource="http://purl.org/dc/dcmitype/StillImage"/>
    <dc:date>2026-09-28T23:21:15.054218</dc:date>
    <dc:format>image/svg+xml</dc:format>
    <dc:creator>
     <cc:Agent>
      <dc:title>Matplotlib v3.10.0, https://matplotlib.org/</dc:title>
     </cc:Agent>
    </dc:creator>
   </cc:Work>
  </rdf:RDF>
 </metadata>
 <defs>
  <style type="text/css">*{stroke-linejoin: round; stroke-linecap: butt}</style>
 </defs>
 <g id="figure_1">
  <g id="patch_1">
   <path d="M 0 518.4
L 1008 518.4
L 1008 0
L 0 0
z
" style="fill: #fcfcfa"/>
  </g>
  <g id="axes_1">
   <g id="line2d_1">
    <path d="M 75.6 196.128
L 854.1 196.128
" clip-path="url(#pac84963cb5)" style="fill: none; stroke: #c9ced3; stroke-width: 2; stroke-linecap: square"/>
   </g>
   <g id="line2d_2">
    <path d="M 75.6 269.960727
L 854.1 269.960727
" clip-path="url(#pac84963cb5)" style="fill: none; stroke: #c9ced3; stroke-width: 2; stroke-linecap: square"/>
   </g>
   <g id="line2d_3">
    <path d="M 75.6 343.793455
L 854.1 343.793455
" clip-path="url(#pac84963cb5)" style="fill: none; stroke: #c9ced3; stroke-width: 2; stroke-linecap: square"/>
   </g>
   <g id="patch_2">
    <path d="M 75.616562 203.880436
L 331.54403 203.880436
Q 331.560592 203.880436 331.560592 196.128
L 331.560592 196.128
Q 331.560592 188.375564 331.54403 188.375564
L 75.616562 188.375564
Q 75.6 188.375564 75.6 196.128
L 75.6 196.128
Q 75.6 203.880436 75.616562 203.880436
z
" clip-path="url(#pac84963cb5)" style="fill: #1686c7"/>
   </g>
   <g id="patch_3">
    <path d="M 75.616562 277.713164
L 331.824993 277.713164
Q 331.841556 277.713164 331.841556 269.960727
L 331.841556 269.960727
Q 331.841556 262.208291 331.824993 262.208291
L 75.616562 262.208291
Q 75.6 262.208291 75.6 269.960727
L 75.6 269.960727
Q 75.6 277.713164 75.616562 277.713164
z
" clip-path="url(#pac84963cb5)" style="fill: #29a58a"/>
   </g>
   <g id="patch_4">
    <path d="M 75.616562 351.545891
L 854.083438 351.545891
Q 854.1 351.545891 854.1 343.793455
L 854.1 343.793455
Q 854.1 336.041018 854.083438 336.041018
L 75.616562 336.041018
Q 75.6 336.041018 75.6 343.793455
L 75.6 343.793455
Q 75.6 351.545891 75.616562 351.545891
z
" clip-path="url(#pac84963cb5)" style="fill: #e3695b"/>
   </g>
   <g id="text_1">
    <!-- Xeon CPU · 8 threads · process RSS -->
    <g style="fill: #202328" transform="translate(75.6 172.018899) scale(0.15 -0.15)">
     <defs>
      <path id="NotoSansSC-Regular-58" d="M 109 0
L 730 0
L 1408 1267
C 1530 1504 1651 1741 1786 2022
L 1811 2022
C 1965 1741 2093 1504 2214 1267
L 2906 0
L 3558 0
L 2189 2394
L 3469 4698
L 2848 4698
L 2221 3494
C 2106 3277 2016 3078 1888 2810
L 1862 2810
C 1709 3078 1613 3277 1491 3494
L 851 4698
L 198 4698
L 1478 2426
L 109 0
z
" transform="scale(0.015625)"/>
      <path id="NotoSansSC-Regular-65" d="M 1990 -83
C 2464 -83 2835 77 3142 275
L 2931 659
C 2675 486 2400 384 2061 384
C 1402 384 947 858 909 1600
L 3251 1600
C 3264 1683 3277 1805 3277 1933
C 3277 2925 2778 3565 1894 3565
C 1088 3565 326 2861 326 1734
C 326 589 1069 -83 1990 -83
z
M 902 2022
C 973 2701 1408 3098 1901 3098
C 2445 3098 2765 2720 2765 2022
L 902 2022
z
" transform="scale(0.015625)"/>
      <path id="NotoSansSC-Regular-6f" d="M 1939 -83
C 2790 -83 3552 582 3552 1734
C 3552 2893 2790 3565 1939 3565
C 1088 3565 326 2893 326 1734
C 326 582 1088 -83 1939 -83
z
M 1939 403
C 1338 403 934 934 934 1734
C 934 2534 1338 3078 1939 3078
C 2541 3078 2950 2534 2950 1734
C 2950 934 2541 403 1939 403
z
" transform="scale(0.015625)"/>
      <path id="NotoSansSC-Regular-6e" d="M 589 0
L 1171 0
L 1171 2522
C 1523 2874 1766 3053 2125 3053
C 2586 3053 2784 2778 2784 2125
L 2784 0
L 3366 0
L 3366 2202
C 3366 3091 3034 3565 2304 3565
C 1830 3565 1472 3302 1139 2976
L 1120 2976
L 1069 3475
L 589 3475
L 589 0
z
" transform="scale(0.015625)"/>
      <path id="NotoSansSC-Regular-20" transform="scale(0.015625)"/>
      <path id="NotoSansSC-Regular-43" d="M 2413 -83
C 3021 -83 3482 160 3853 589
L 3526 960
C 3226 634 2886 435 2438 435
C 1542 435 979 1178 979 2362
C 979 3533 1568 4262 2458 4262
C 2861 4262 3174 4077 3418 3814
L 3738 4198
C 3469 4499 3021 4781 2451 4781
C 1261 4781 371 3859 371 2342
C 371 819 1248 -83 2413 -83
z
" transform="scale(0.015625)"/>
      <path id="NotoSansSC-Regular-50" d="M 640 0
L 1235 0
L 1235 1862
L 2010 1862
C 3040 1862 3738 2323 3738 3315
C 3738 4339 3034 4698 1984 4698
L 640 4698
L 640 0
z
M 1235 2342
L 1235 4211
L 1907 4211
C 2733 4211 3149 3994 3149 3315
C 3149 2643 2758 2342 1933 2342
L 1235 2342
z
" transform="scale(0.015625)"/>
      <path id="NotoSansSC-Regular-55" d="M 2304 -83
C 3264 -83 3994 429 3994 1939
L 3994 4698
L 3424 4698
L 3424 1920
C 3424 787 2931 435 2304 435
C 1696 435 1216 787 1216 1920
L 1216 4698
L 621 4698
L 621 1939
C 621 429 1350 -83 2304 -83
z
" transform="scale(0.015625)"/>
      <path id="NotoSansSC-Regular-b7" d="M 3200 3110
C 2822 3110 2522 2810 2522 2432
C 2522 2054 2822 1754 3200 1754
C 3578 1754 3878 2054 3878 2432
C 3878 2810 3578 3110 3200 3110
z
" transform="scale(0.015625)"/>
      <path id="NotoSansSC-Regular-38" d="M 1786 -83
C 2669 -83 3258 448 3258 1133
C 3258 1773 2874 2125 2464 2362
L 2464 2394
C 2746 2611 3091 3034 3091 3526
C 3091 4250 2605 4762 1805 4762
C 1075 4762 518 4288 518 3571
C 518 3078 806 2726 1152 2490
L 1152 2458
C 723 2227 288 1792 288 1165
C 288 442 922 -83 1786 -83
z
M 2106 2547
C 1555 2765 1050 3008 1050 3571
C 1050 4026 1363 4333 1798 4333
C 2304 4333 2592 3955 2592 3494
C 2592 3149 2426 2829 2106 2547
z
M 1798 352
C 1235 352 819 717 819 1216
C 819 1664 1082 2035 1459 2278
C 2125 2010 2701 1773 2701 1146
C 2701 678 2336 352 1798 352
z
" transform="scale(0.015625)"/>
      <path id="NotoSansSC-Regular-74" d="M 1683 -83
C 1894 -83 2125 -19 2323 45
L 2208 480
C 2093 435 1933 390 1811 390
C 1408 390 1274 634 1274 1062
L 1274 3002
L 2214 3002
L 2214 3475
L 1274 3475
L 1274 4454
L 787 4454
L 717 3475
L 173 3443
L 173 3002
L 691 3002
L 691 1075
C 691 384 941 -83 1683 -83
z
" transform="scale(0.015625)"/>
      <path id="NotoSansSC-Regular-68" d="M 589 0
L 1171 0
L 1171 2522
C 1523 2874 1766 3053 2125 3053
C 2586 3053 2784 2778 2784 2125
L 2784 0
L 3366 0
L 3366 2202
C 3366 3091 3034 3565 2304 3565
C 1830 3565 1472 3302 1152 2982
L 1171 3699
L 1171 5094
L 589 5094
L 589 0
z
" transform="scale(0.015625)"/>
      <path id="NotoSansSC-Regular-72" d="M 589 0
L 1171 0
L 1171 2234
C 1402 2829 1760 3034 2048 3034
C 2189 3034 2272 3021 2387 2976
L 2496 3488
C 2387 3546 2278 3565 2125 3565
C 1734 3565 1382 3283 1139 2842
L 1120 2842
L 1069 3475
L 589 3475
L 589 0
z
" transform="scale(0.015625)"/>
      <path id="NotoSansSC-Regular-61" d="M 1389 -83
C 1818 -83 2208 141 2541 416
L 2560 416
L 2611 0
L 3091 0
L 3091 2138
C 3091 2995 2733 3565 1888 3565
C 1331 3565 838 3315 518 3110
L 749 2707
C 1024 2893 1389 3078 1792 3078
C 2362 3078 2509 2650 2509 2202
C 1030 2035 371 1658 371 902
C 371 275 806 -83 1389 -83
z
M 1555 384
C 1210 384 941 544 941 941
C 941 1389 1338 1677 2509 1818
L 2509 845
C 2170 544 1894 384 1555 384
z
" transform="scale(0.015625)"/>
      <path id="NotoSansSC-Regular-64" d="M 1773 -83
C 2189 -83 2554 141 2829 410
L 2848 410
L 2899 0
L 3373 0
L 3373 5094
L 2797 5094
L 2797 3757
L 2822 3155
C 2515 3411 2253 3565 1843 3565
C 1050 3565 339 2861 339 1734
C 339 576 902 -83 1773 -83
z
M 1901 403
C 1286 403 941 902 941 1741
C 941 2534 1382 3072 1946 3072
C 2234 3072 2496 2970 2797 2707
L 2797 883
C 2502 563 2221 403 1901 403
z
" transform="scale(0.015625)"/>
      <path id="NotoSansSC-Regular-73" d="M 1498 -83
C 2317 -83 2765 384 2765 947
C 2765 1606 2208 1811 1702 2003
C 1312 2150 954 2272 954 2605
C 954 2874 1158 3104 1600 3104
C 1907 3104 2150 2976 2387 2797
L 2669 3174
C 2400 3386 2022 3565 1594 3565
C 838 3565 390 3130 390 2579
C 390 1990 922 1754 1408 1574
C 1792 1427 2202 1274 2202 915
C 2202 614 1978 371 1517 371
C 1101 371 787 538 486 781
L 198 397
C 531 122 1005 -83 1498 -83
z
" transform="scale(0.015625)"/>
      <path id="NotoSansSC-Regular-70" d="M 589 -1466
L 1171 -1466
L 1171 -288
L 1158 320
C 1472 64 1805 -83 2118 -83
C 2918 -83 3629 602 3629 1792
C 3629 2861 3142 3565 2246 3565
C 1843 3565 1453 3334 1139 3078
L 1120 3078
L 1069 3475
L 589 3475
L 589 -1466
z
M 2022 403
C 1792 403 1485 499 1171 768
L 1171 2592
C 1510 2906 1811 3072 2106 3072
C 2765 3072 3021 2554 3021 1786
C 3021 922 2598 403 2022 403
z
" transform="scale(0.015625)"/>
      <path id="NotoSansSC-Regular-63" d="M 1958 -83
C 2374 -83 2771 77 3085 358
L 2829 749
C 2611 550 2330 403 2010 403
C 1370 403 934 934 934 1734
C 934 2534 1395 3078 2029 3078
C 2304 3078 2515 2950 2720 2771
L 3021 3155
C 2771 3373 2458 3565 2003 3565
C 1114 3565 326 2893 326 1734
C 326 582 1037 -83 1958 -83
z
" transform="scale(0.015625)"/>
      <path id="NotoSansSC-Regular-52" d="M 640 0
L 1235 0
L 1235 1990
L 2080 1990
L 3219 0
L 3891 0
L 2688 2054
C 3328 2208 3750 2643 3750 3373
C 3750 4352 3066 4698 2112 4698
L 640 4698
L 640 0
z
M 1235 2470
L 1235 4211
L 2022 4211
C 2758 4211 3162 3994 3162 3373
C 3162 2765 2758 2470 2022 2470
L 1235 2470
z
" transform="scale(0.015625)"/>
      <path id="NotoSansSC-Regular-53" d="M 1946 -83
C 2925 -83 3539 506 3539 1248
C 3539 1946 3117 2266 2573 2502
L 1901 2790
C 1536 2944 1126 3117 1126 3571
C 1126 3994 1472 4262 2003 4262
C 2438 4262 2784 4090 3072 3821
L 3386 4198
C 3053 4544 2560 4781 2003 4781
C 1152 4781 525 4256 525 3533
C 525 2848 1043 2515 1478 2330
L 2157 2035
C 2598 1837 2938 1683 2938 1203
C 2938 742 2566 435 1952 435
C 1466 435 992 666 659 1018
L 301 614
C 710 186 1280 -83 1946 -83
z
" transform="scale(0.015625)"/>
     </defs>
     <use xlink:href="#NotoSansSC-Regular-58"/>
     <use xlink:href="#NotoSansSC-Regular-65" transform="translate(57.299988 0)"/>
     <use xlink:href="#NotoSansSC-Regular-6f" transform="translate(112.699982 0)"/>
     <use xlink:href="#NotoSansSC-Regular-6e" transform="translate(173.299973 0)"/>
     <use xlink:href="#NotoSansSC-Regular-20" transform="translate(234.399963 0)"/>
     <use xlink:href="#NotoSansSC-Regular-43" transform="translate(256.799957 0)"/>
     <use xlink:href="#NotoSansSC-Regular-50" transform="translate(320.599945 0)"/>
     <use xlink:href="#NotoSansSC-Regular-55" transform="translate(383.799942 0)"/>
     <use xlink:href="#NotoSansSC-Regular-20" transform="translate(455.899933 0)"/>
     <use xlink:href="#NotoSansSC-Regular-b7" transform="translate(478.299927 0)"/>
     <use xlink:href="#NotoSansSC-Regular-20" transform="translate(578.299911 0)"/>
     <use xlink:href="#NotoSansSC-Regular-38" transform="translate(600.699905 0)"/>
     <use xlink:href="#NotoSansSC-Regular-20" transform="translate(656.19989 0)"/>
     <use xlink:href="#NotoSansSC-Regular-74" transform="translate(678.599884 0)"/>
     <use xlink:href="#NotoSansSC-Regular-68" transform="translate(716.299881 0)"/>
     <use xlink:href="#NotoSansSC-Regular-72" transform="translate(776.999878 0)"/>
     <use xlink:href="#NotoSansSC-Regular-65" transform="translate(815.799866 0)"/>
     <use xlink:href="#NotoSansSC-Regular-61" transform="translate(871.19986 0)"/>
     <use xlink:href="#NotoSansSC-Regular-64" transform="translate(927.599854 0)"/>
     <use xlink:href="#NotoSansSC-Regular-73" transform="translate(989.599838 0)"/>
     <use xlink:href="#NotoSansSC-Regular-20" transform="translate(1036.399826 0)"/>
     <use xlink:href="#NotoSansSC-Regular-b7" transform="translate(1058.79982 0)"/>
     <use xlink:href="#NotoSansSC-Regular-20" transform="translate(1158.799805 0)"/>
     <use xlink:href="#NotoSansSC-Regular-70" transform="translate(1181.199799 0)"/>
     <use xlink:href="#NotoSansSC-Regular-72" transform="translate(1243.199783 0)"/>
     <use xlink:href="#NotoSansSC-Regular-6f" transform="translate(1281.999771 0)"/>
     <use xlink:href="#NotoSansSC-Regular-63" transform="translate(1342.599762 0)"/>
     <use xlink:href="#NotoSansSC-Regular-65" transform="translate(1393.499756 0)"/>
     <use xlink:href="#NotoSansSC-Regular-73" transform="translate(1448.89975 0)"/>
     <use xlink:href="#NotoSansSC-Regular-73" transform="translate(1495.699738 0)"/>
     <use xlink:href="#NotoSansSC-Regular-20" transform="translate(1542.499725 0)"/>
     <use xlink:href="#NotoSansSC-Regular-52" transform="translate(1564.899719 0)"/>
     <use xlink:href="#NotoSansSC-Regular-53" transform="translate(1628.49971 0)"/>
     <use xlink:href="#NotoSansSC-Regular-53" transform="translate(1688.199707 0)"/>
    </g>
   </g>
   <g id="text_2">
    <!-- 1,622.7 MiB -->
    <g style="fill: #202328" transform="translate(857.435938 171.560774) scale(0.17 -0.17)">
     <defs>
      <path id="NotoSansSC-Regular-31" d="M 563 0
L 3136 0
L 3136 486
L 2195 486
L 2195 4698
L 1747 4698
C 1491 4544 1190 4435 774 4358
L 774 3987
L 1606 3987
L 1606 486
L 563 486
L 563 0
z
" transform="scale(0.015625)"/>
      <path id="NotoSansSC-Regular-2c" d="M 480 -1216
C 1056 -973 1414 -493 1414 122
C 1414 550 1229 813 922 813
C 685 813 480 653 480 403
C 480 134 685 -6 909 -6
C 934 -6 954 -6 979 0
C 979 -378 742 -691 339 -870
L 480 -1216
z
" transform="scale(0.015625)"/>
      <path id="NotoSansSC-Regular-36" d="M 1875 2477
C 2445 2477 2726 2074 2726 1440
C 2726 800 2374 371 1926 371
C 1338 371 986 902 915 1875
C 1203 2304 1581 2477 1875 2477
z
M 1926 -83
C 2656 -83 3270 531 3270 1440
C 3270 2419 2765 2912 1971 2912
C 1600 2912 1190 2694 902 2342
C 928 3802 1472 4294 2112 4294
C 2400 4294 2682 4160 2867 3936
L 3187 4301
C 2931 4576 2579 4781 2093 4781
C 1184 4781 358 4077 358 2240
C 358 691 1024 -83 1926 -83
z
" transform="scale(0.015625)"/>
      <path id="NotoSansSC-Regular-32" d="M 282 0
L 3232 0
L 3232 506
L 1933 506
C 1696 506 1408 480 1165 461
C 2266 1504 3002 2458 3002 3392
C 3002 4230 2477 4781 1638 4781
C 1043 4781 640 4506 256 4090
L 595 3757
C 851 4064 1184 4301 1568 4301
C 2150 4301 2432 3910 2432 3373
C 2432 2566 1754 1632 282 346
L 282 0
z
" transform="scale(0.015625)"/>
      <path id="NotoSansSC-Regular-2e" d="M 890 -83
C 1120 -83 1312 96 1312 358
C 1312 627 1120 813 890 813
C 659 813 467 627 467 358
C 467 96 659 -83 890 -83
z
" transform="scale(0.015625)"/>
      <path id="NotoSansSC-Regular-37" d="M 1267 0
L 1875 0
C 1946 1837 2150 2931 3251 4339
L 3251 4698
L 314 4698
L 314 4192
L 2586 4192
C 1670 2912 1344 1779 1267 0
z
" transform="scale(0.015625)"/>
      <path id="NotoSansSC-Regular-4d" d="M 640 0
L 1178 0
L 1178 2598
C 1178 3002 1133 3571 1107 3981
L 1133 3981
L 1504 2912
L 2394 474
L 2790 474
L 3680 2912
L 4051 3981
L 4077 3981
C 4045 3571 4000 3002 4000 2598
L 4000 0
L 4557 0
L 4557 4698
L 3840 4698
L 2944 2182
C 2835 1856 2733 1530 2624 1203
L 2592 1203
C 2477 1530 2368 1856 2259 2182
L 1357 4698
L 640 4698
L 640 0
z
" transform="scale(0.015625)"/>
      <path id="NotoSansSC-Regular-69" d="M 589 0
L 1171 0
L 1171 3475
L 589 3475
L 589 0
z
M 883 4192
C 1114 4192 1274 4346 1274 4582
C 1274 4806 1114 4960 883 4960
C 653 4960 493 4806 493 4582
C 493 4346 653 4192 883 4192
z
" transform="scale(0.015625)"/>
      <path id="NotoSansSC-Regular-42" d="M 640 0
L 2138 0
C 3187 0 3917 454 3917 1376
C 3917 2016 3520 2387 2963 2496
L 2963 2528
C 3398 2669 3648 3078 3648 3546
C 3648 4371 2989 4698 2035 4698
L 640 4698
L 640 0
z
M 1235 2694
L 1235 4224
L 1958 4224
C 2688 4224 3066 4019 3066 3469
C 3066 2995 2739 2694 1933 2694
L 1235 2694
z
M 1235 474
L 1235 2246
L 2054 2246
C 2874 2246 3334 1978 3334 1395
C 3334 762 2861 474 2054 474
L 1235 474
z
" transform="scale(0.015625)"/>
     </defs>
     <use xlink:href="#NotoSansSC-Regular-31"/>
     <use xlink:href="#NotoSansSC-Regular-2c" transform="translate(55.499985 0)"/>
     <use xlink:href="#NotoSansSC-Regular-36" transform="translate(83.299973 0)"/>
     <use xlink:href="#NotoSansSC-Regular-32" transform="translate(138.799957 0)"/>
     <use xlink:href="#NotoSansSC-Regular-32" transform="translate(194.299942 0)"/>
     <use xlink:href="#NotoSansSC-Regular-2e" transform="translate(249.799927 0)"/>
     <use xlink:href="#NotoSansSC-Regular-37" transform="translate(277.599915 0)"/>
     <use xlink:href="#NotoSansSC-Regular-20" transform="translate(333.099899 0)"/>
     <use xlink:href="#NotoSansSC-Regular-4d" transform="translate(355.499893 0)"/>
     <use xlink:href="#NotoSansSC-Regular-69" transform="translate(436.699875 0)"/>
     <use xlink:href="#NotoSansSC-Regular-42" transform="translate(464.19986 0)"/>
    </g>
   </g>
   <g id="text_3">
    <!-- Xeon CPU · 16 threads · process RSS -->
    <g style="fill: #202328" transform="translate(75.6 245.851626) scale(0.15 -0.15)">
     <use xlink:href="#NotoSansSC-Regular-58"/>
     <use xlink:href="#NotoSansSC-Regular-65" transform="translate(57.299988 0)"/>
     <use xlink:href="#NotoSansSC-Regular-6f" transform="translate(112.699982 0)"/>
     <use xlink:href="#NotoSansSC-Regular-6e" transform="translate(173.299973 0)"/>
     <use xlink:href="#NotoSansSC-Regular-20" transform="translate(234.399963 0)"/>
     <use xlink:href="#NotoSansSC-Regular-43" transform="translate(256.799957 0)"/>
     <use xlink:href="#NotoSansSC-Regular-50" transform="translate(320.599945 0)"/>
     <use xlink:href="#NotoSansSC-Regular-55" transform="translate(383.799942 0)"/>
     <use xlink:href="#NotoSansSC-Regular-20" transform="translate(455.899933 0)"/>
     <use xlink:href="#NotoSansSC-Regular-b7" transform="translate(478.299927 0)"/>
     <use xlink:href="#NotoSansSC-Regular-20" transform="translate(578.299911 0)"/>
     <use xlink:href="#NotoSansSC-Regular-31" transform="translate(600.699905 0)"/>
     <use xlink:href="#NotoSansSC-Regular-36" transform="translate(656.19989 0)"/>
     <use xlink:href="#NotoSansSC-Regular-20" transform="translate(711.699875 0)"/>
     <use xlink:href="#NotoSansSC-Regular-74" transform="translate(734.099869 0)"/>
     <use xlink:href="#NotoSansSC-Regular-68" transform="translate(771.799866 0)"/>
     <use xlink:href="#NotoSansSC-Regular-72" transform="translate(832.499863 0)"/>
     <use xlink:href="#NotoSansSC-Regular-65" transform="translate(871.29985 0)"/>
     <use xlink:href="#NotoSansSC-Regular-61" transform="translate(926.699844 0)"/>
     <use xlink:href="#NotoSansSC-Regular-64" transform="translate(983.099838 0)"/>
     <use xlink:href="#NotoSansSC-Regular-73" transform="translate(1045.099823 0)"/>
     <use xlink:href="#NotoSansSC-Regular-20" transform="translate(1091.899811 0)"/>
     <use xlink:href="#NotoSansSC-Regular-b7" transform="translate(1114.299805 0)"/>
     <use xlink:href="#NotoSansSC-Regular-20" transform="translate(1214.299789 0)"/>
     <use xlink:href="#NotoSansSC-Regular-70" transform="translate(1236.699783 0)"/>
     <use xlink:href="#NotoSansSC-Regular-72" transform="translate(1298.699768 0)"/>
     <use xlink:href="#NotoSansSC-Regular-6f" transform="translate(1337.499756 0)"/>
     <use xlink:href="#NotoSansSC-Regular-63" transform="translate(1398.099747 0)"/>
     <use xlink:href="#NotoSansSC-Regular-65" transform="translate(1448.999741 0)"/>
     <use xlink:href="#NotoSansSC-Regular-73" transform="translate(1504.399734 0)"/>
     <use xlink:href="#NotoSansSC-Regular-73" transform="translate(1551.199722 0)"/>
     <use xlink:href="#NotoSansSC-Regular-20" transform="translate(1597.99971 0)"/>
     <use xlink:href="#NotoSansSC-Regular-52" transform="translate(1620.399704 0)"/>
     <use xlink:href="#NotoSansSC-Regular-53" transform="translate(1683.999695 0)"/>
     <use xlink:href="#NotoSansSC-Regular-53" transform="translate(1743.699692 0)"/>
    </g>
   </g>
   <g id="text_4">
    <!-- 1,624.5 MiB -->
    <g style="fill: #202328" transform="translate(857.435938 245.393501) scale(0.17 -0.17)">
     <defs>
      <path id="NotoSansSC-Regular-34" d="M 736 1760
L 1805 3360
C 1939 3590 2067 3821 2182 4051
L 2208 4051
C 2195 3808 2176 3430 2176 3200
L 2176 1760
L 736 1760
z
M 2176 0
L 2726 0
L 2726 1293
L 3347 1293
L 3347 1760
L 2726 1760
L 2726 4698
L 2080 4698
L 128 1677
L 128 1293
L 2176 1293
L 2176 0
z
" transform="scale(0.015625)"/>
      <path id="NotoSansSC-Regular-35" d="M 1670 -83
C 2464 -83 3206 499 3206 1530
C 3206 2560 2573 3021 1792 3021
C 1510 3021 1306 2950 1094 2835
L 1210 4192
L 2982 4192
L 2982 4698
L 698 4698
L 550 2496
L 864 2304
C 1133 2483 1331 2579 1645 2579
C 2234 2579 2618 2182 2618 1510
C 2618 826 2170 403 1619 403
C 1075 403 736 653 467 922
L 179 538
C 493 224 941 -83 1670 -83
z
" transform="scale(0.015625)"/>
     </defs>
     <use xlink:href="#NotoSansSC-Regular-31"/>
     <use xlink:href="#NotoSansSC-Regular-2c" transform="translate(55.499985 0)"/>
     <use xlink:href="#NotoSansSC-Regular-36" transform="translate(83.299973 0)"/>
     <use xlink:href="#NotoSansSC-Regular-32" transform="translate(138.799957 0)"/>
     <use xlink:href="#NotoSansSC-Regular-34" transform="translate(194.299942 0)"/>
     <use xlink:href="#NotoSansSC-Regular-2e" transform="translate(249.799927 0)"/>
     <use xlink:href="#NotoSansSC-Regular-35" transform="translate(277.599915 0)"/>
     <use xlink:href="#NotoSansSC-Regular-20" transform="translate(333.099899 0)"/>
     <use xlink:href="#NotoSansSC-Regular-4d" transform="translate(355.499893 0)"/>
     <use xlink:href="#NotoSansSC-Regular-69" transform="translate(436.699875 0)"/>
     <use xlink:href="#NotoSansSC-Regular-42" transform="translate(464.19986 0)"/>
    </g>
   </g>
   <g id="text_5">
    <!-- RTX 5090 · framework VRAM allocation -->
    <g style="fill: #202328" transform="translate(75.6 319.684353) scale(0.15 -0.15)">
     <defs>
      <path id="NotoSansSC-Regular-54" d="M 1619 0
L 2214 0
L 2214 4192
L 3635 4192
L 3635 4698
L 198 4698
L 198 4192
L 1619 4192
L 1619 0
z
" transform="scale(0.015625)"/>
      <path id="NotoSansSC-Regular-30" d="M 1779 -83
C 2669 -83 3238 730 3238 2362
C 3238 3987 2669 4781 1779 4781
C 883 4781 314 3994 314 2362
C 314 730 883 -83 1779 -83
z
M 1779 384
C 1242 384 883 979 883 2362
C 883 3731 1242 4314 1779 4314
C 2310 4314 2669 3731 2669 2362
C 2669 979 2310 384 1779 384
z
" transform="scale(0.015625)"/>
      <path id="NotoSansSC-Regular-39" d="M 832 3258
C 832 3898 1178 4320 1626 4320
C 2227 4320 2586 3808 2650 2842
C 2349 2400 1990 2214 1670 2214
C 1114 2214 832 2624 832 3258
z
M 1498 -83
C 2381 -83 3200 646 3200 2547
C 3200 4038 2528 4781 1626 4781
C 896 4781 282 4166 282 3258
C 282 2285 794 1779 1574 1779
C 1965 1779 2368 2003 2656 2355
C 2611 902 2086 403 1478 403
C 1178 403 890 538 698 762
L 371 397
C 634 122 992 -83 1498 -83
z
" transform="scale(0.015625)"/>
      <path id="NotoSansSC-Regular-66" d="M 685 0
L 1267 0
L 1267 3002
L 2003 3002
L 2003 3475
L 1267 3475
L 1267 4026
C 1267 4474 1427 4710 1760 4710
C 1882 4710 2022 4678 2150 4621
L 2278 5062
C 2118 5133 1907 5178 1696 5178
C 1005 5178 685 4736 685 4032
L 685 3475
L 211 3443
L 211 3002
L 685 3002
L 685 0
z
" transform="scale(0.015625)"/>
      <path id="NotoSansSC-Regular-6d" d="M 589 0
L 1171 0
L 1171 2522
C 1491 2880 1786 3053 2048 3053
C 2490 3053 2694 2778 2694 2125
L 2694 0
L 3277 0
L 3277 2522
C 3603 2880 3885 3053 4154 3053
C 4595 3053 4800 2778 4800 2125
L 4800 0
L 5382 0
L 5382 2202
C 5382 3091 5043 3565 4326 3565
C 3904 3565 3539 3290 3181 2899
C 3040 3309 2752 3565 2221 3565
C 1805 3565 1440 3302 1139 2970
L 1120 2970
L 1069 3475
L 589 3475
L 589 0
z
" transform="scale(0.015625)"/>
      <path id="NotoSansSC-Regular-77" d="M 1139 0
L 1824 0
L 2310 1862
C 2400 2195 2470 2522 2547 2874
L 2579 2874
C 2662 2522 2726 2202 2816 1875
L 3322 0
L 4026 0
L 4960 3475
L 4410 3475
L 3898 1466
C 3821 1133 3757 819 3680 493
L 3654 493
C 3571 819 3494 1133 3411 1466
L 2867 3475
L 2298 3475
L 1760 1466
C 1670 1139 1600 819 1523 493
L 1491 493
C 1427 819 1357 1133 1286 1466
L 768 3475
L 173 3475
L 1139 0
z
" transform="scale(0.015625)"/>
      <path id="NotoSansSC-Regular-6b" d="M 589 0
L 1165 0
L 1165 915
L 1818 1677
L 2835 0
L 3469 0
L 2157 2074
L 3315 3475
L 2662 3475
L 1184 1638
L 1165 1638
L 1165 5094
L 589 5094
L 589 0
z
" transform="scale(0.015625)"/>
      <path id="NotoSansSC-Regular-56" d="M 1504 0
L 2189 0
L 3680 4698
L 3078 4698
L 2323 2150
C 2157 1600 2042 1152 1869 602
L 1843 602
C 1664 1152 1555 1600 1389 2150
L 627 4698
L 6 4698
L 1504 0
z
" transform="scale(0.015625)"/>
      <path id="NotoSansSC-Regular-41" d="M 1453 2624
C 1619 3155 1773 3661 1920 4211
L 1946 4211
C 2099 3667 2246 3155 2419 2624
L 2643 1907
L 1222 1907
L 1453 2624
z
M 19 0
L 621 0
L 1075 1434
L 2790 1434
L 3238 0
L 3866 0
L 2272 4698
L 1613 4698
L 19 0
z
" transform="scale(0.015625)"/>
      <path id="NotoSansSC-Regular-6c" d="M 1203 -83
C 1363 -83 1459 -64 1542 -32
L 1459 416
C 1395 403 1370 403 1338 403
C 1248 403 1171 474 1171 653
L 1171 5094
L 589 5094
L 589 691
C 589 198 768 -83 1203 -83
z
" transform="scale(0.015625)"/>
     </defs>
     <use xlink:href="#NotoSansSC-Regular-52"/>
     <use xlink:href="#NotoSansSC-Regular-54" transform="translate(63.599991 0)"/>
     <use xlink:href="#NotoSansSC-Regular-58" transform="translate(123.499985 0)"/>
     <use xlink:href="#NotoSansSC-Regular-20" transform="translate(180.799973 0)"/>
     <use xlink:href="#NotoSansSC-Regular-35" transform="translate(203.199966 0)"/>
     <use xlink:href="#NotoSansSC-Regular-30" transform="translate(258.699951 0)"/>
     <use xlink:href="#NotoSansSC-Regular-39" transform="translate(314.199936 0)"/>
     <use xlink:href="#NotoSansSC-Regular-30" transform="translate(369.699921 0)"/>
     <use xlink:href="#NotoSansSC-Regular-20" transform="translate(425.199905 0)"/>
     <use xlink:href="#NotoSansSC-Regular-b7" transform="translate(447.599899 0)"/>
     <use xlink:href="#NotoSansSC-Regular-20" transform="translate(547.599884 0)"/>
     <use xlink:href="#NotoSansSC-Regular-66" transform="translate(569.999878 0)"/>
     <use xlink:href="#NotoSansSC-Regular-72" transform="translate(602.499863 0)"/>
     <use xlink:href="#NotoSansSC-Regular-61" transform="translate(641.29985 0)"/>
     <use xlink:href="#NotoSansSC-Regular-6d" transform="translate(697.699844 0)"/>
     <use xlink:href="#NotoSansSC-Regular-65" transform="translate(790.299835 0)"/>
     <use xlink:href="#NotoSansSC-Regular-77" transform="translate(845.699829 0)"/>
     <use xlink:href="#NotoSansSC-Regular-6f" transform="translate(925.899811 0)"/>
     <use xlink:href="#NotoSansSC-Regular-72" transform="translate(986.499802 0)"/>
     <use xlink:href="#NotoSansSC-Regular-6b" transform="translate(1025.299789 0)"/>
     <use xlink:href="#NotoSansSC-Regular-20" transform="translate(1080.499786 0)"/>
     <use xlink:href="#NotoSansSC-Regular-56" transform="translate(1102.89978 0)"/>
     <use xlink:href="#NotoSansSC-Regular-52" transform="translate(1160.399765 0)"/>
     <use xlink:href="#NotoSansSC-Regular-41" transform="translate(1223.999756 0)"/>
     <use xlink:href="#NotoSansSC-Regular-4d" transform="translate(1284.699753 0)"/>
     <use xlink:href="#NotoSansSC-Regular-20" transform="translate(1365.899734 0)"/>
     <use xlink:href="#NotoSansSC-Regular-61" transform="translate(1388.299728 0)"/>
     <use xlink:href="#NotoSansSC-Regular-6c" transform="translate(1444.699722 0)"/>
     <use xlink:href="#NotoSansSC-Regular-6c" transform="translate(1473.199707 0)"/>
     <use xlink:href="#NotoSansSC-Regular-6f" transform="translate(1501.699692 0)"/>
     <use xlink:href="#NotoSansSC-Regular-63" transform="translate(1562.299683 0)"/>
     <use xlink:href="#NotoSansSC-Regular-61" transform="translate(1613.199677 0)"/>
     <use xlink:href="#NotoSansSC-Regular-74" transform="translate(1669.59967 0)"/>
     <use xlink:href="#NotoSansSC-Regular-69" transform="translate(1707.299667 0)"/>
     <use xlink:href="#NotoSansSC-Regular-6f" transform="translate(1734.799652 0)"/>
     <use xlink:href="#NotoSansSC-Regular-6e" transform="translate(1795.399643 0)"/>
    </g>
   </g>
   <g id="text_6">
    <!-- 4,935.5 MiB -->
    <g style="fill: #202328" transform="translate(857.435938 319.226228) scale(0.17 -0.17)">
     <defs>
      <path id="NotoSansSC-Regular-33" d="M 1690 -83
C 2522 -83 3194 416 3194 1254
C 3194 1894 2752 2317 2202 2445
L 2202 2470
C 2694 2656 3034 3034 3034 3603
C 3034 4346 2458 4781 1670 4781
C 1126 4781 710 4544 358 4218
L 672 3846
C 934 4115 1267 4301 1645 4301
C 2131 4301 2438 4006 2438 3558
C 2438 3053 2106 2662 1139 2662
L 1139 2214
C 2221 2214 2598 1837 2598 1280
C 2598 736 2202 403 1645 403
C 1114 403 755 653 480 941
L 186 557
C 493 224 954 -83 1690 -83
z
" transform="scale(0.015625)"/>
     </defs>
     <use xlink:href="#NotoSansSC-Regular-34"/>
     <use xlink:href="#NotoSansSC-Regular-2c" transform="translate(55.499985 0)"/>
     <use xlink:href="#NotoSansSC-Regular-39" transform="translate(83.299973 0)"/>
     <use xlink:href="#NotoSansSC-Regular-33" transform="translate(138.799957 0)"/>
     <use xlink:href="#NotoSansSC-Regular-35" transform="translate(194.299942 0)"/>
     <use xlink:href="#NotoSansSC-Regular-2e" transform="translate(249.799927 0)"/>
     <use xlink:href="#NotoSansSC-Regular-35" transform="translate(277.599915 0)"/>
     <use xlink:href="#NotoSansSC-Regular-20" transform="translate(333.099899 0)"/>
     <use xlink:href="#NotoSansSC-Regular-4d" transform="translate(355.499893 0)"/>
     <use xlink:href="#NotoSansSC-Regular-69" transform="translate(436.699875 0)"/>
     <use xlink:href="#NotoSansSC-Regular-42" transform="translate(464.19986 0)"/>
    </g>
   </g>
  </g>
  <g id="text_7">
   <!-- BIT-JEV  /  AUTODL SINGLE-QUESTION CASE -->
   <g style="fill: #1686c7" transform="translate(75.6 38.88) scale(0.11 -0.11)">
    <defs>
     <path id="NotoSansSC-Regular-49" d="M 640 0
L 1235 0
L 1235 4698
L 640 4698
L 640 0
z
" transform="scale(0.015625)"/>
     <path id="NotoSansSC-Regular-2d" d="M 294 1568
L 1933 1568
L 1933 2016
L 294 2016
L 294 1568
z
" transform="scale(0.015625)"/>
     <path id="NotoSansSC-Regular-4a" d="M 1517 -83
C 2432 -83 2803 570 2803 1376
L 2803 4698
L 2214 4698
L 2214 1434
C 2214 723 1965 435 1459 435
C 1120 435 858 589 646 960
L 224 659
C 499 173 922 -83 1517 -83
z
" transform="scale(0.015625)"/>
     <path id="NotoSansSC-Regular-45" d="M 640 0
L 3418 0
L 3418 506
L 1235 506
L 1235 2214
L 3014 2214
L 3014 2720
L 1235 2720
L 1235 4192
L 3347 4192
L 3347 4698
L 640 4698
L 640 0
z
" transform="scale(0.015625)"/>
     <path id="NotoSansSC-Regular-2f" d="M 70 -1146
L 499 -1146
L 2413 5082
L 1990 5082
L 70 -1146
z
" transform="scale(0.015625)"/>
     <path id="NotoSansSC-Regular-4f" d="M 2374 -83
C 3552 -83 4378 858 4378 2362
C 4378 3866 3552 4781 2374 4781
C 1197 4781 371 3866 371 2362
C 371 858 1197 -83 2374 -83
z
M 2374 435
C 1530 435 979 1190 979 2362
C 979 3539 1530 4262 2374 4262
C 3213 4262 3770 3539 3770 2362
C 3770 1190 3213 435 2374 435
z
" transform="scale(0.015625)"/>
     <path id="NotoSansSC-Regular-44" d="M 640 0
L 1843 0
C 3258 0 4032 877 4032 2362
C 4032 3853 3258 4698 1818 4698
L 640 4698
L 640 0
z
M 1235 486
L 1235 4211
L 1766 4211
C 2874 4211 3418 3552 3418 2362
C 3418 1178 2874 486 1766 486
L 1235 486
z
" transform="scale(0.015625)"/>
     <path id="NotoSansSC-Regular-4c" d="M 640 0
L 3283 0
L 3283 506
L 1235 506
L 1235 4698
L 640 4698
L 640 0
z
" transform="scale(0.015625)"/>
     <path id="NotoSansSC-Regular-4e" d="M 640 0
L 1203 0
L 1203 2464
C 1203 2957 1158 3456 1133 3930
L 1158 3930
L 1664 2963
L 3373 0
L 3981 0
L 3981 4698
L 3418 4698
L 3418 2253
C 3418 1766 3462 1242 3494 768
L 3462 768
L 2963 1734
L 1254 4698
L 640 4698
L 640 0
z
" transform="scale(0.015625)"/>
     <path id="NotoSansSC-Regular-47" d="M 2483 -83
C 3117 -83 3635 147 3936 461
L 3936 2432
L 2400 2432
L 2400 1939
L 3392 1939
L 3392 710
C 3206 538 2880 435 2547 435
C 1536 435 979 1178 979 2362
C 979 3533 1594 4262 2534 4262
C 3014 4262 3315 4064 3552 3814
L 3872 4198
C 3603 4486 3174 4781 2522 4781
C 1280 4781 371 3859 371 2342
C 371 819 1254 -83 2483 -83
z
" transform="scale(0.015625)"/>
     <path id="NotoSansSC-Regular-51" d="M 2374 403
C 1530 403 979 1165 979 2362
C 979 3539 1530 4262 2374 4262
C 3213 4262 3770 3539 3770 2362
C 3770 1165 3213 403 2374 403
z
M 3808 -1178
C 4090 -1178 4339 -1126 4480 -1075
L 4365 -614
C 4243 -653 4083 -685 3872 -685
C 3366 -685 2931 -474 2720 -58
C 3712 115 4378 1011 4378 2362
C 4378 3866 3552 4781 2374 4781
C 1197 4781 371 3866 371 2362
C 371 986 1062 77 2086 -64
C 2349 -710 2944 -1178 3808 -1178
z
" transform="scale(0.015625)"/>
    </defs>
    <use xlink:href="#NotoSansSC-Regular-42"/>
    <use xlink:href="#NotoSansSC-Regular-49" transform="translate(65.699997 0)"/>
    <use xlink:href="#NotoSansSC-Regular-54" transform="translate(94.999985 0)"/>
    <use xlink:href="#NotoSansSC-Regular-2d" transform="translate(154.899979 0)"/>
    <use xlink:href="#NotoSansSC-Regular-4a" transform="translate(189.599976 0)"/>
    <use xlink:href="#NotoSansSC-Regular-45" transform="translate(243.199966 0)"/>
    <use xlink:href="#NotoSansSC-Regular-56" transform="translate(301.999954 0)"/>
    <use xlink:href="#NotoSansSC-Regular-20" transform="translate(359.499939 0)"/>
    <use xlink:href="#NotoSansSC-Regular-20" transform="translate(381.899933 0)"/>
    <use xlink:href="#NotoSansSC-Regular-2f" transform="translate(404.299927 0)"/>
    <use xlink:href="#NotoSansSC-Regular-20" transform="translate(443.499924 0)"/>
    <use xlink:href="#NotoSansSC-Regular-20" transform="translate(465.899918 0)"/>
    <use xlink:href="#NotoSansSC-Regular-41" transform="translate(488.299911 0)"/>
    <use xlink:href="#NotoSansSC-Regular-55" transform="translate(548.999908 0)"/>
    <use xlink:href="#NotoSansSC-Regular-54" transform="translate(621.099899 0)"/>
    <use xlink:href="#NotoSansSC-Regular-4f" transform="translate(680.999893 0)"/>
    <use xlink:href="#NotoSansSC-Regular-44" transform="translate(755.199875 0)"/>
    <use xlink:href="#NotoSansSC-Regular-4c" transform="translate(823.899857 0)"/>
    <use xlink:href="#NotoSansSC-Regular-20" transform="translate(878.199844 0)"/>
    <use xlink:href="#NotoSansSC-Regular-53" transform="translate(900.599838 0)"/>
    <use xlink:href="#NotoSansSC-Regular-49" transform="translate(960.299835 0)"/>
    <use xlink:href="#NotoSansSC-Regular-4e" transform="translate(989.599823 0)"/>
    <use xlink:href="#NotoSansSC-Regular-47" transform="translate(1061.799805 0)"/>
    <use xlink:href="#NotoSansSC-Regular-4c" transform="translate(1130.699799 0)"/>
    <use xlink:href="#NotoSansSC-Regular-45" transform="translate(1184.999786 0)"/>
    <use xlink:href="#NotoSansSC-Regular-2d" transform="translate(1243.799774 0)"/>
    <use xlink:href="#NotoSansSC-Regular-51" transform="translate(1278.499771 0)"/>
    <use xlink:href="#NotoSansSC-Regular-55" transform="translate(1352.699753 0)"/>
    <use xlink:href="#NotoSansSC-Regular-45" transform="translate(1424.799744 0)"/>
    <use xlink:href="#NotoSansSC-Regular-53" transform="translate(1483.599731 0)"/>
    <use xlink:href="#NotoSansSC-Regular-54" transform="translate(1543.299728 0)"/>
    <use xlink:href="#NotoSansSC-Regular-49" transform="translate(1603.199722 0)"/>
    <use xlink:href="#NotoSansSC-Regular-4f" transform="translate(1632.49971 0)"/>
    <use xlink:href="#NotoSansSC-Regular-4e" transform="translate(1706.699692 0)"/>
    <use xlink:href="#NotoSansSC-Regular-20" transform="translate(1778.899673 0)"/>
    <use xlink:href="#NotoSansSC-Regular-43" transform="translate(1801.299667 0)"/>
    <use xlink:href="#NotoSansSC-Regular-41" transform="translate(1865.099655 0)"/>
    <use xlink:href="#NotoSansSC-Regular-53" transform="translate(1925.799652 0)"/>
    <use xlink:href="#NotoSansSC-Regular-45" transform="translate(1985.499649 0)"/>
   </g>
  </g>
  <g id="text_8">
   <!-- Peak memory: shorter is smaller -->
   <g style="fill: #202328" transform="translate(75.6 77.76) scale(0.26 -0.26)">
    <defs>
     <path id="NotoSansSC-Regular-79" d="M 646 -1498
C 1338 -1498 1702 -973 1939 -288
L 3251 3475
L 2682 3475
L 2061 1542
C 1965 1235 1862 883 1766 570
L 1734 570
C 1626 883 1504 1242 1402 1542
L 691 3475
L 83 3475
L 1478 -6
L 1402 -269
C 1261 -698 1011 -1018 614 -1018
C 525 -1018 422 -986 352 -960
L 237 -1427
C 346 -1472 480 -1498 646 -1498
z
" transform="scale(0.015625)"/>
     <path id="NotoSansSC-Regular-3a" d="M 890 2496
C 1120 2496 1312 2682 1312 2938
C 1312 3206 1120 3392 890 3392
C 659 3392 467 3206 467 2938
C 467 2682 659 2496 890 2496
z
M 890 -83
C 1120 -83 1312 96 1312 358
C 1312 627 1120 813 890 813
C 659 813 467 627 467 358
C 467 96 659 -83 890 -83
z
" transform="scale(0.015625)"/>
    </defs>
    <use xlink:href="#NotoSansSC-Regular-50"/>
    <use xlink:href="#NotoSansSC-Regular-65" transform="translate(63.199997 0)"/>
    <use xlink:href="#NotoSansSC-Regular-61" transform="translate(118.599991 0)"/>
    <use xlink:href="#NotoSansSC-Regular-6b" transform="translate(174.999985 0)"/>
    <use xlink:href="#NotoSansSC-Regular-20" transform="translate(230.199982 0)"/>
    <use xlink:href="#NotoSansSC-Regular-6d" transform="translate(252.599976 0)"/>
    <use xlink:href="#NotoSansSC-Regular-65" transform="translate(345.199966 0)"/>
    <use xlink:href="#NotoSansSC-Regular-6d" transform="translate(400.59996 0)"/>
    <use xlink:href="#NotoSansSC-Regular-6f" transform="translate(493.199951 0)"/>
    <use xlink:href="#NotoSansSC-Regular-72" transform="translate(553.799942 0)"/>
    <use xlink:href="#NotoSansSC-Regular-79" transform="translate(592.59993 0)"/>
    <use xlink:href="#NotoSansSC-Regular-3a" transform="translate(644.699921 0)"/>
    <use xlink:href="#NotoSansSC-Regular-20" transform="translate(672.499908 0)"/>
    <use xlink:href="#NotoSansSC-Regular-73" transform="translate(694.899902 0)"/>
    <use xlink:href="#NotoSansSC-Regular-68" transform="translate(741.69989 0)"/>
    <use xlink:href="#NotoSansSC-Regular-6f" transform="translate(802.399887 0)"/>
    <use xlink:href="#NotoSansSC-Regular-72" transform="translate(862.999878 0)"/>
    <use xlink:href="#NotoSansSC-Regular-74" transform="translate(901.799866 0)"/>
    <use xlink:href="#NotoSansSC-Regular-65" transform="translate(939.499863 0)"/>
    <use xlink:href="#NotoSansSC-Regular-72" transform="translate(994.899857 0)"/>
    <use xlink:href="#NotoSansSC-Regular-20" transform="translate(1033.699844 0)"/>
    <use xlink:href="#NotoSansSC-Regular-69" transform="translate(1056.099838 0)"/>
    <use xlink:href="#NotoSansSC-Regular-73" transform="translate(1083.599823 0)"/>
    <use xlink:href="#NotoSansSC-Regular-20" transform="translate(1130.399811 0)"/>
    <use xlink:href="#NotoSansSC-Regular-73" transform="translate(1152.799805 0)"/>
    <use xlink:href="#NotoSansSC-Regular-6d" transform="translate(1199.599792 0)"/>
    <use xlink:href="#NotoSansSC-Regular-61" transform="translate(1292.199783 0)"/>
    <use xlink:href="#NotoSansSC-Regular-6c" transform="translate(1348.599777 0)"/>
    <use xlink:href="#NotoSansSC-Regular-6c" transform="translate(1377.099762 0)"/>
    <use xlink:href="#NotoSansSC-Regular-65" transform="translate(1405.599747 0)"/>
    <use xlink:href="#NotoSansSC-Regular-72" transform="translate(1460.999741 0)"/>
   </g>
  </g>
  <g id="text_9">
   <!-- Historical same-host case: Xeon Gold 6459C / RTX 5090 · load and inference -->
   <g style="fill: #636b75" transform="translate(75.6 108.864) scale(0.11 -0.11)">
    <defs>
     <path id="NotoSansSC-Regular-48" d="M 640 0
L 1235 0
L 1235 2214
L 3424 2214
L 3424 0
L 4013 0
L 4013 4698
L 3424 4698
L 3424 2726
L 1235 2726
L 1235 4698
L 640 4698
L 640 0
z
" transform="scale(0.015625)"/>
    </defs>
    <use xlink:href="#NotoSansSC-Regular-48"/>
    <use xlink:href="#NotoSansSC-Regular-69" transform="translate(72.799988 0)"/>
    <use xlink:href="#NotoSansSC-Regular-73" transform="translate(100.299973 0)"/>
    <use xlink:href="#NotoSansSC-Regular-74" transform="translate(147.09996 0)"/>
    <use xlink:href="#NotoSansSC-Regular-6f" transform="translate(184.799957 0)"/>
    <use xlink:href="#NotoSansSC-Regular-72" transform="translate(245.399948 0)"/>
    <use xlink:href="#NotoSansSC-Regular-69" transform="translate(284.199936 0)"/>
    <use xlink:href="#NotoSansSC-Regular-63" transform="translate(311.699921 0)"/>
    <use xlink:href="#NotoSansSC-Regular-61" transform="translate(362.599915 0)"/>
    <use xlink:href="#NotoSansSC-Regular-6c" transform="translate(418.999908 0)"/>
    <use xlink:href="#NotoSansSC-Regular-20" transform="translate(447.499893 0)"/>
    <use xlink:href="#NotoSansSC-Regular-73" transform="translate(469.899887 0)"/>
    <use xlink:href="#NotoSansSC-Regular-61" transform="translate(516.699875 0)"/>
    <use xlink:href="#NotoSansSC-Regular-6d" transform="translate(573.099869 0)"/>
    <use xlink:href="#NotoSansSC-Regular-65" transform="translate(665.69986 0)"/>
    <use xlink:href="#NotoSansSC-Regular-2d" transform="translate(721.099854 0)"/>
    <use xlink:href="#NotoSansSC-Regular-68" transform="translate(755.79985 0)"/>
    <use xlink:href="#NotoSansSC-Regular-6f" transform="translate(816.499847 0)"/>
    <use xlink:href="#NotoSansSC-Regular-73" transform="translate(877.099838 0)"/>
    <use xlink:href="#NotoSansSC-Regular-74" transform="translate(923.899826 0)"/>
    <use xlink:href="#NotoSansSC-Regular-20" transform="translate(961.599823 0)"/>
    <use xlink:href="#NotoSansSC-Regular-63" transform="translate(983.999817 0)"/>
    <use xlink:href="#NotoSansSC-Regular-61" transform="translate(1034.899811 0)"/>
    <use xlink:href="#NotoSansSC-Regular-73" transform="translate(1091.299805 0)"/>
    <use xlink:href="#NotoSansSC-Regular-65" transform="translate(1138.099792 0)"/>
    <use xlink:href="#NotoSansSC-Regular-3a" transform="translate(1193.499786 0)"/>
    <use xlink:href="#NotoSansSC-Regular-20" transform="translate(1221.299774 0)"/>
    <use xlink:href="#NotoSansSC-Regular-58" transform="translate(1243.699768 0)"/>
    <use xlink:href="#NotoSansSC-Regular-65" transform="translate(1300.999756 0)"/>
    <use xlink:href="#NotoSansSC-Regular-6f" transform="translate(1356.39975 0)"/>
    <use xlink:href="#NotoSansSC-Regular-6e" transform="translate(1416.999741 0)"/>
    <use xlink:href="#NotoSansSC-Regular-20" transform="translate(1478.099731 0)"/>
    <use xlink:href="#NotoSansSC-Regular-47" transform="translate(1500.499725 0)"/>
    <use xlink:href="#NotoSansSC-Regular-6f" transform="translate(1569.399719 0)"/>
    <use xlink:href="#NotoSansSC-Regular-6c" transform="translate(1629.99971 0)"/>
    <use xlink:href="#NotoSansSC-Regular-64" transform="translate(1658.499695 0)"/>
    <use xlink:href="#NotoSansSC-Regular-20" transform="translate(1720.49968 0)"/>
    <use xlink:href="#NotoSansSC-Regular-36" transform="translate(1742.899673 0)"/>
    <use xlink:href="#NotoSansSC-Regular-34" transform="translate(1798.399658 0)"/>
    <use xlink:href="#NotoSansSC-Regular-35" transform="translate(1853.899643 0)"/>
    <use xlink:href="#NotoSansSC-Regular-39" transform="translate(1909.399628 0)"/>
    <use xlink:href="#NotoSansSC-Regular-43" transform="translate(1964.899612 0)"/>
    <use xlink:href="#NotoSansSC-Regular-20" transform="translate(2028.6996 0)"/>
    <use xlink:href="#NotoSansSC-Regular-2f" transform="translate(2051.099594 0)"/>
    <use xlink:href="#NotoSansSC-Regular-20" transform="translate(2090.299591 0)"/>
    <use xlink:href="#NotoSansSC-Regular-52" transform="translate(2112.699585 0)"/>
    <use xlink:href="#NotoSansSC-Regular-54" transform="translate(2176.299576 0)"/>
    <use xlink:href="#NotoSansSC-Regular-58" transform="translate(2236.19957 0)"/>
    <use xlink:href="#NotoSansSC-Regular-20" transform="translate(2293.499557 0)"/>
    <use xlink:href="#NotoSansSC-Regular-35" transform="translate(2315.899551 0)"/>
    <use xlink:href="#NotoSansSC-Regular-30" transform="translate(2371.399536 0)"/>
    <use xlink:href="#NotoSansSC-Regular-39" transform="translate(2426.899521 0)"/>
    <use xlink:href="#NotoSansSC-Regular-30" transform="translate(2482.399506 0)"/>
    <use xlink:href="#NotoSansSC-Regular-20" transform="translate(2537.89949 0)"/>
    <use xlink:href="#NotoSansSC-Regular-b7" transform="translate(2560.299484 0)"/>
    <use xlink:href="#NotoSansSC-Regular-20" transform="translate(2660.299469 0)"/>
    <use xlink:href="#NotoSansSC-Regular-6c" transform="translate(2682.699463 0)"/>
    <use xlink:href="#NotoSansSC-Regular-6f" transform="translate(2711.199448 0)"/>
    <use xlink:href="#NotoSansSC-Regular-61" transform="translate(2771.799438 0)"/>
    <use xlink:href="#NotoSansSC-Regular-64" transform="translate(2828.199432 0)"/>
    <use xlink:href="#NotoSansSC-Regular-20" transform="translate(2890.199417 0)"/>
    <use xlink:href="#NotoSansSC-Regular-61" transform="translate(2912.599411 0)"/>
    <use xlink:href="#NotoSansSC-Regular-6e" transform="translate(2968.999405 0)"/>
    <use xlink:href="#NotoSansSC-Regular-64" transform="translate(3030.099396 0)"/>
    <use xlink:href="#NotoSansSC-Regular-20" transform="translate(3092.09938 0)"/>
    <use xlink:href="#NotoSansSC-Regular-69" transform="translate(3114.499374 0)"/>
    <use xlink:href="#NotoSansSC-Regular-6e" transform="translate(3141.999359 0)"/>
    <use xlink:href="#NotoSansSC-Regular-66" transform="translate(3203.09935 0)"/>
    <use xlink:href="#NotoSansSC-Regular-65" transform="translate(3235.599335 0)"/>
    <use xlink:href="#NotoSansSC-Regular-72" transform="translate(3290.999329 0)"/>
    <use xlink:href="#NotoSansSC-Regular-65" transform="translate(3329.799316 0)"/>
    <use xlink:href="#NotoSansSC-Regular-6e" transform="translate(3385.19931 0)"/>
    <use xlink:href="#NotoSansSC-Regular-63" transform="translate(3446.299301 0)"/>
    <use xlink:href="#NotoSansSC-Regular-65" transform="translate(3497.199295 0)"/>
   </g>
  </g>
  <g id="text_10">
   <!-- CPU bars are peak process resident memory; GPU bar is peak PyTorch VRAM allocation. Units: MiB. -->
   <g style="fill: #202328" transform="translate(75.6 448.416) scale(0.1 -0.1)">
    <defs>
     <path id="NotoSansSC-Regular-62" d="M 2118 -83
C 2918 -83 3629 602 3629 1798
C 3629 2861 3142 3565 2240 3565
C 1856 3565 1466 3347 1152 3072
L 1171 3699
L 1171 5094
L 589 5094
L 589 0
L 1056 0
L 1107 358
L 1133 358
C 1434 83 1798 -83 2118 -83
z
M 2022 403
C 1792 403 1478 499 1171 768
L 1171 2592
C 1504 2906 1811 3072 2106 3072
C 2765 3072 3021 2554 3021 1786
C 3021 922 2598 403 2022 403
z
" transform="scale(0.015625)"/>
     <path id="NotoSansSC-Regular-3b" d="M 890 2496
C 1120 2496 1312 2682 1312 2938
C 1312 3206 1120 3392 890 3392
C 659 3392 467 3206 467 2938
C 467 2682 659 2496 890 2496
z
M 480 -1216
C 1056 -973 1414 -493 1414 122
C 1414 550 1229 813 922 813
C 685 813 480 653 480 403
C 480 134 685 -6 909 -6
C 934 -6 954 -6 979 0
C 979 -378 742 -691 339 -870
L 480 -1216
z
" transform="scale(0.015625)"/>
    </defs>
    <use xlink:href="#NotoSansSC-Regular-43"/>
    <use xlink:href="#NotoSansSC-Regular-50" transform="translate(63.799988 0)"/>
    <use xlink:href="#NotoSansSC-Regular-55" transform="translate(126.999985 0)"/>
    <use xlink:href="#NotoSansSC-Regular-20" transform="translate(199.099976 0)"/>
    <use xlink:href="#NotoSansSC-Regular-62" transform="translate(221.499969 0)"/>
    <use xlink:href="#NotoSansSC-Regular-61" transform="translate(283.299957 0)"/>
    <use xlink:href="#NotoSansSC-Regular-72" transform="translate(339.699951 0)"/>
    <use xlink:href="#NotoSansSC-Regular-73" transform="translate(378.499939 0)"/>
    <use xlink:href="#NotoSansSC-Regular-20" transform="translate(425.299927 0)"/>
    <use xlink:href="#NotoSansSC-Regular-61" transform="translate(447.699921 0)"/>
    <use xlink:href="#NotoSansSC-Regular-72" transform="translate(504.099915 0)"/>
    <use xlink:href="#NotoSansSC-Regular-65" transform="translate(542.899902 0)"/>
    <use xlink:href="#NotoSansSC-Regular-20" transform="translate(598.299896 0)"/>
    <use xlink:href="#NotoSansSC-Regular-70" transform="translate(620.69989 0)"/>
    <use xlink:href="#NotoSansSC-Regular-65" transform="translate(682.699875 0)"/>
    <use xlink:href="#NotoSansSC-Regular-61" transform="translate(738.099869 0)"/>
    <use xlink:href="#NotoSansSC-Regular-6b" transform="translate(794.499863 0)"/>
    <use xlink:href="#NotoSansSC-Regular-20" transform="translate(849.69986 0)"/>
    <use xlink:href="#NotoSansSC-Regular-70" transform="translate(872.099854 0)"/>
    <use xlink:href="#NotoSansSC-Regular-72" transform="translate(934.099838 0)"/>
    <use xlink:href="#NotoSansSC-Regular-6f" transform="translate(972.899826 0)"/>
    <use xlink:href="#NotoSansSC-Regular-63" transform="translate(1033.499817 0)"/>
    <use xlink:href="#NotoSansSC-Regular-65" transform="translate(1084.399811 0)"/>
    <use xlink:href="#NotoSansSC-Regular-73" transform="translate(1139.799805 0)"/>
    <use xlink:href="#NotoSansSC-Regular-73" transform="translate(1186.599792 0)"/>
    <use xlink:href="#NotoSansSC-Regular-20" transform="translate(1233.39978 0)"/>
    <use xlink:href="#NotoSansSC-Regular-72" transform="translate(1255.799774 0)"/>
    <use xlink:href="#NotoSansSC-Regular-65" transform="translate(1294.599762 0)"/>
    <use xlink:href="#NotoSansSC-Regular-73" transform="translate(1349.999756 0)"/>
    <use xlink:href="#NotoSansSC-Regular-69" transform="translate(1396.799744 0)"/>
    <use xlink:href="#NotoSansSC-Regular-64" transform="translate(1424.299728 0)"/>
    <use xlink:href="#NotoSansSC-Regular-65" transform="translate(1486.299713 0)"/>
    <use xlink:href="#NotoSansSC-Regular-6e" transform="translate(1541.699707 0)"/>
    <use xlink:href="#NotoSansSC-Regular-74" transform="translate(1602.799698 0)"/>
    <use xlink:href="#NotoSansSC-Regular-20" transform="translate(1640.499695 0)"/>
    <use xlink:href="#NotoSansSC-Regular-6d" transform="translate(1662.899689 0)"/>
    <use xlink:href="#NotoSansSC-Regular-65" transform="translate(1755.49968 0)"/>
    <use xlink:href="#NotoSansSC-Regular-6d" transform="translate(1810.899673 0)"/>
    <use xlink:href="#NotoSansSC-Regular-6f" transform="translate(1903.499664 0)"/>
    <use xlink:href="#NotoSansSC-Regular-72" transform="translate(1964.099655 0)"/>
    <use xlink:href="#NotoSansSC-Regular-79" transform="translate(2002.899643 0)"/>
    <use xlink:href="#NotoSansSC-Regular-3b" transform="translate(2054.999634 0)"/>
    <use xlink:href="#NotoSansSC-Regular-20" transform="translate(2082.799622 0)"/>
    <use xlink:href="#NotoSansSC-Regular-47" transform="translate(2105.199615 0)"/>
    <use xlink:href="#NotoSansSC-Regular-50" transform="translate(2174.099609 0)"/>
    <use xlink:href="#NotoSansSC-Regular-55" transform="translate(2237.299606 0)"/>
    <use xlink:href="#NotoSansSC-Regular-20" transform="translate(2309.399597 0)"/>
    <use xlink:href="#NotoSansSC-Regular-62" transform="translate(2331.799591 0)"/>
    <use xlink:href="#NotoSansSC-Regular-61" transform="translate(2393.599579 0)"/>
    <use xlink:href="#NotoSansSC-Regular-72" transform="translate(2449.999573 0)"/>
    <use xlink:href="#NotoSansSC-Regular-20" transform="translate(2488.799561 0)"/>
    <use xlink:href="#NotoSansSC-Regular-69" transform="translate(2511.199554 0)"/>
    <use xlink:href="#NotoSansSC-Regular-73" transform="translate(2538.699539 0)"/>
    <use xlink:href="#NotoSansSC-Regular-20" transform="translate(2585.499527 0)"/>
    <use xlink:href="#NotoSansSC-Regular-70" transform="translate(2607.899521 0)"/>
    <use xlink:href="#NotoSansSC-Regular-65" transform="translate(2669.899506 0)"/>
    <use xlink:href="#NotoSansSC-Regular-61" transform="translate(2725.2995 0)"/>
    <use xlink:href="#NotoSansSC-Regular-6b" transform="translate(2781.699493 0)"/>
    <use xlink:href="#NotoSansSC-Regular-20" transform="translate(2836.89949 0)"/>
    <use xlink:href="#NotoSansSC-Regular-50" transform="translate(2859.299484 0)"/>
    <use xlink:href="#NotoSansSC-Regular-79" transform="translate(2922.499481 0)"/>
    <use xlink:href="#NotoSansSC-Regular-54" transform="translate(2974.599472 0)"/>
    <use xlink:href="#NotoSansSC-Regular-6f" transform="translate(3034.499466 0)"/>
    <use xlink:href="#NotoSansSC-Regular-72" transform="translate(3095.099457 0)"/>
    <use xlink:href="#NotoSansSC-Regular-63" transform="translate(3133.899445 0)"/>
    <use xlink:href="#NotoSansSC-Regular-68" transform="translate(3184.799438 0)"/>
    <use xlink:href="#NotoSansSC-Regular-20" transform="translate(3245.499435 0)"/>
    <use xlink:href="#NotoSansSC-Regular-56" transform="translate(3267.899429 0)"/>
    <use xlink:href="#NotoSansSC-Regular-52" transform="translate(3325.399414 0)"/>
    <use xlink:href="#NotoSansSC-Regular-41" transform="translate(3388.999405 0)"/>
    <use xlink:href="#NotoSansSC-Regular-4d" transform="translate(3449.699402 0)"/>
    <use xlink:href="#NotoSansSC-Regular-20" transform="translate(3530.899384 0)"/>
    <use xlink:href="#NotoSansSC-Regular-61" transform="translate(3553.299377 0)"/>
    <use xlink:href="#NotoSansSC-Regular-6c" transform="translate(3609.699371 0)"/>
    <use xlink:href="#NotoSansSC-Regular-6c" transform="translate(3638.199356 0)"/>
    <use xlink:href="#NotoSansSC-Regular-6f" transform="translate(3666.699341 0)"/>
    <use xlink:href="#NotoSansSC-Regular-63" transform="translate(3727.299332 0)"/>
    <use xlink:href="#NotoSansSC-Regular-61" transform="translate(3778.199326 0)"/>
    <use xlink:href="#NotoSansSC-Regular-74" transform="translate(3834.599319 0)"/>
    <use xlink:href="#NotoSansSC-Regular-69" transform="translate(3872.299316 0)"/>
    <use xlink:href="#NotoSansSC-Regular-6f" transform="translate(3899.799301 0)"/>
    <use xlink:href="#NotoSansSC-Regular-6e" transform="translate(3960.399292 0)"/>
    <use xlink:href="#NotoSansSC-Regular-2e" transform="translate(4021.499283 0)"/>
    <use xlink:href="#NotoSansSC-Regular-20" transform="translate(4049.299271 0)"/>
    <use xlink:href="#NotoSansSC-Regular-55" transform="translate(4071.699265 0)"/>
    <use xlink:href="#NotoSansSC-Regular-6e" transform="translate(4143.799255 0)"/>
    <use xlink:href="#NotoSansSC-Regular-69" transform="translate(4204.899246 0)"/>
    <use xlink:href="#NotoSansSC-Regular-74" transform="translate(4232.399231 0)"/>
    <use xlink:href="#NotoSansSC-Regular-73" transform="translate(4270.099228 0)"/>
    <use xlink:href="#NotoSansSC-Regular-3a" transform="translate(4316.899216 0)"/>
    <use xlink:href="#NotoSansSC-Regular-20" transform="translate(4344.699203 0)"/>
    <use xlink:href="#NotoSansSC-Regular-4d" transform="translate(4367.099197 0)"/>
    <use xlink:href="#NotoSansSC-Regular-69" transform="translate(4448.299179 0)"/>
    <use xlink:href="#NotoSansSC-Regular-42" transform="translate(4475.799164 0)"/>
    <use xlink:href="#NotoSansSC-Regular-2e" transform="translate(4541.499161 0)"/>
   </g>
  </g>
  <g id="text_11">
   <!-- The measures differ. This displays deployment capacity, not a like-for-like memory saving rate. -->
   <g style="fill: #636b75" transform="translate(75.6 470.7072) scale(0.095 -0.095)">
    <defs>
     <path id="NotoSansSC-Regular-75" d="M 1600 -83
C 2080 -83 2426 166 2752 544
L 2771 544
L 2816 0
L 3302 0
L 3302 3475
L 2720 3475
L 2720 1011
C 2387 595 2138 422 1779 422
C 1318 422 1126 698 1126 1344
L 1126 3475
L 544 3475
L 544 1274
C 544 390 870 -83 1600 -83
z
" transform="scale(0.015625)"/>
     <path id="NotoSansSC-Regular-76" d="M 1338 0
L 2016 0
L 3251 3475
L 2675 3475
L 2016 1498
C 1914 1158 1805 800 1696 474
L 1670 474
C 1562 800 1453 1158 1344 1498
L 691 3475
L 83 3475
L 1338 0
z
" transform="scale(0.015625)"/>
     <path id="NotoSansSC-Regular-67" d="M 1760 -1600
C 2835 -1600 3520 -1043 3520 -397
C 3520 173 3110 429 2304 429
L 1626 429
C 1158 429 1018 582 1018 806
C 1018 998 1114 1114 1242 1222
C 1395 1146 1587 1101 1760 1101
C 2464 1101 3027 1568 3027 2310
C 3027 2611 2912 2867 2746 3027
L 3456 3027
L 3456 3475
L 2246 3475
C 2125 3520 1952 3565 1760 3565
C 1056 3565 454 3085 454 2323
C 454 1907 678 1574 909 1389
L 909 1363
C 730 1235 518 1005 518 717
C 518 442 653 256 838 147
L 838 122
C 512 -90 326 -371 326 -666
C 326 -1267 909 -1600 1760 -1600
z
M 1760 1498
C 1357 1498 1018 1818 1018 2323
C 1018 2835 1350 3136 1760 3136
C 2170 3136 2502 2829 2502 2323
C 2502 1818 2157 1498 1760 1498
z
M 1843 -1203
C 1216 -1203 838 -960 838 -589
C 838 -384 941 -179 1190 0
C 1344 -38 1510 -58 1638 -58
L 2240 -58
C 2701 -58 2950 -166 2950 -486
C 2950 -851 2509 -1203 1843 -1203
z
" transform="scale(0.015625)"/>
    </defs>
    <use xlink:href="#NotoSansSC-Regular-54"/>
    <use xlink:href="#NotoSansSC-Regular-68" transform="translate(59.899994 0)"/>
    <use xlink:href="#NotoSansSC-Regular-65" transform="translate(120.599991 0)"/>
    <use xlink:href="#NotoSansSC-Regular-20" transform="translate(175.999985 0)"/>
    <use xlink:href="#NotoSansSC-Regular-6d" transform="translate(198.399979 0)"/>
    <use xlink:href="#NotoSansSC-Regular-65" transform="translate(290.999969 0)"/>
    <use xlink:href="#NotoSansSC-Regular-61" transform="translate(346.399963 0)"/>
    <use xlink:href="#NotoSansSC-Regular-73" transform="translate(402.799957 0)"/>
    <use xlink:href="#NotoSansSC-Regular-75" transform="translate(449.599945 0)"/>
    <use xlink:href="#NotoSansSC-Regular-72" transform="translate(510.299942 0)"/>
    <use xlink:href="#NotoSansSC-Regular-65" transform="translate(549.09993 0)"/>
    <use xlink:href="#NotoSansSC-Regular-73" transform="translate(604.499924 0)"/>
    <use xlink:href="#NotoSansSC-Regular-20" transform="translate(651.299911 0)"/>
    <use xlink:href="#NotoSansSC-Regular-64" transform="translate(673.699905 0)"/>
    <use xlink:href="#NotoSansSC-Regular-69" transform="translate(735.69989 0)"/>
    <use xlink:href="#NotoSansSC-Regular-66" transform="translate(763.199875 0)"/>
    <use xlink:href="#NotoSansSC-Regular-66" transform="translate(795.69986 0)"/>
    <use xlink:href="#NotoSansSC-Regular-65" transform="translate(828.199844 0)"/>
    <use xlink:href="#NotoSansSC-Regular-72" transform="translate(883.599838 0)"/>
    <use xlink:href="#NotoSansSC-Regular-2e" transform="translate(922.399826 0)"/>
    <use xlink:href="#NotoSansSC-Regular-20" transform="translate(950.199814 0)"/>
    <use xlink:href="#NotoSansSC-Regular-54" transform="translate(972.599808 0)"/>
    <use xlink:href="#NotoSansSC-Regular-68" transform="translate(1032.499802 0)"/>
    <use xlink:href="#NotoSansSC-Regular-69" transform="translate(1093.199799 0)"/>
    <use xlink:href="#NotoSansSC-Regular-73" transform="translate(1120.699783 0)"/>
    <use xlink:href="#NotoSansSC-Regular-20" transform="translate(1167.499771 0)"/>
    <use xlink:href="#NotoSansSC-Regular-64" transform="translate(1189.899765 0)"/>
    <use xlink:href="#NotoSansSC-Regular-69" transform="translate(1251.89975 0)"/>
    <use xlink:href="#NotoSansSC-Regular-73" transform="translate(1279.399734 0)"/>
    <use xlink:href="#NotoSansSC-Regular-70" transform="translate(1326.199722 0)"/>
    <use xlink:href="#NotoSansSC-Regular-6c" transform="translate(1388.199707 0)"/>
    <use xlink:href="#NotoSansSC-Regular-61" transform="translate(1416.699692 0)"/>
    <use xlink:href="#NotoSansSC-Regular-79" transform="translate(1473.099686 0)"/>
    <use xlink:href="#NotoSansSC-Regular-73" transform="translate(1525.199677 0)"/>
    <use xlink:href="#NotoSansSC-Regular-20" transform="translate(1571.999664 0)"/>
    <use xlink:href="#NotoSansSC-Regular-64" transform="translate(1594.399658 0)"/>
    <use xlink:href="#NotoSansSC-Regular-65" transform="translate(1656.399643 0)"/>
    <use xlink:href="#NotoSansSC-Regular-70" transform="translate(1711.799637 0)"/>
    <use xlink:href="#NotoSansSC-Regular-6c" transform="translate(1773.799622 0)"/>
    <use xlink:href="#NotoSansSC-Regular-6f" transform="translate(1802.299606 0)"/>
    <use xlink:href="#NotoSansSC-Regular-79" transform="translate(1862.899597 0)"/>
    <use xlink:href="#NotoSansSC-Regular-6d" transform="translate(1914.999588 0)"/>
    <use xlink:href="#NotoSansSC-Regular-65" transform="translate(2007.599579 0)"/>
    <use xlink:href="#NotoSansSC-Regular-6e" transform="translate(2062.999573 0)"/>
    <use xlink:href="#NotoSansSC-Regular-74" transform="translate(2124.099564 0)"/>
    <use xlink:href="#NotoSansSC-Regular-20" transform="translate(2161.799561 0)"/>
    <use xlink:href="#NotoSansSC-Regular-63" transform="translate(2184.199554 0)"/>
    <use xlink:href="#NotoSansSC-Regular-61" transform="translate(2235.099548 0)"/>
    <use xlink:href="#NotoSansSC-Regular-70" transform="translate(2291.499542 0)"/>
    <use xlink:href="#NotoSansSC-Regular-61" transform="translate(2353.499527 0)"/>
    <use xlink:href="#NotoSansSC-Regular-63" transform="translate(2409.899521 0)"/>
    <use xlink:href="#NotoSansSC-Regular-69" transform="translate(2460.799515 0)"/>
    <use xlink:href="#NotoSansSC-Regular-74" transform="translate(2488.2995 0)"/>
    <use xlink:href="#NotoSansSC-Regular-79" transform="translate(2525.999496 0)"/>
    <use xlink:href="#NotoSansSC-Regular-2c" transform="translate(2578.099487 0)"/>
    <use xlink:href="#NotoSansSC-Regular-20" transform="translate(2605.899475 0)"/>
    <use xlink:href="#NotoSansSC-Regular-6e" transform="translate(2628.299469 0)"/>
    <use xlink:href="#NotoSansSC-Regular-6f" transform="translate(2689.39946 0)"/>
    <use xlink:href="#NotoSansSC-Regular-74" transform="translate(2749.999451 0)"/>
    <use xlink:href="#NotoSansSC-Regular-20" transform="translate(2787.699448 0)"/>
    <use xlink:href="#NotoSansSC-Regular-61" transform="translate(2810.099442 0)"/>
    <use xlink:href="#NotoSansSC-Regular-20" transform="translate(2866.499435 0)"/>
    <use xlink:href="#NotoSansSC-Regular-6c" transform="translate(2888.899429 0)"/>
    <use xlink:href="#NotoSansSC-Regular-69" transform="translate(2917.399414 0)"/>
    <use xlink:href="#NotoSansSC-Regular-6b" transform="translate(2944.899399 0)"/>
    <use xlink:href="#NotoSansSC-Regular-65" transform="translate(3000.099396 0)"/>
    <use xlink:href="#NotoSansSC-Regular-2d" transform="translate(3055.49939 0)"/>
    <use xlink:href="#NotoSansSC-Regular-66" transform="translate(3090.199387 0)"/>
    <use xlink:href="#NotoSansSC-Regular-6f" transform="translate(3122.699371 0)"/>
    <use xlink:href="#NotoSansSC-Regular-72" transform="translate(3183.299362 0)"/>
    <use xlink:href="#NotoSansSC-Regular-2d" transform="translate(3222.09935 0)"/>
    <use xlink:href="#NotoSansSC-Regular-6c" transform="translate(3256.799347 0)"/>
    <use xlink:href="#NotoSansSC-Regular-69" transform="translate(3285.299332 0)"/>
    <use xlink:href="#NotoSansSC-Regular-6b" transform="translate(3312.799316 0)"/>
    <use xlink:href="#NotoSansSC-Regular-65" transform="translate(3367.999313 0)"/>
    <use xlink:href="#NotoSansSC-Regular-20" transform="translate(3423.399307 0)"/>
    <use xlink:href="#NotoSansSC-Regular-6d" transform="translate(3445.799301 0)"/>
    <use xlink:href="#NotoSansSC-Regular-65" transform="translate(3538.399292 0)"/>
    <use xlink:href="#NotoSansSC-Regular-6d" transform="translate(3593.799286 0)"/>
    <use xlink:href="#NotoSansSC-Regular-6f" transform="translate(3686.399277 0)"/>
    <use xlink:href="#NotoSansSC-Regular-72" transform="translate(3746.999268 0)"/>
    <use xlink:href="#NotoSansSC-Regular-79" transform="translate(3785.799255 0)"/>
    <use xlink:href="#NotoSansSC-Regular-20" transform="translate(3837.899246 0)"/>
    <use xlink:href="#NotoSansSC-Regular-73" transform="translate(3860.29924 0)"/>
    <use xlink:href="#NotoSansSC-Regular-61" transform="translate(3907.099228 0)"/>
    <use xlink:href="#NotoSansSC-Regular-76" transform="translate(3963.499222 0)"/>
    <use xlink:href="#NotoSansSC-Regular-69" transform="translate(4015.599213 0)"/>
    <use xlink:href="#NotoSansSC-Regular-6e" transform="translate(4043.099197 0)"/>
    <use xlink:href="#NotoSansSC-Regular-67" transform="translate(4104.199188 0)"/>
    <use xlink:href="#NotoSansSC-Regular-20" transform="translate(4160.499176 0)"/>
    <use xlink:href="#NotoSansSC-Regular-72" transform="translate(4182.89917 0)"/>
    <use xlink:href="#NotoSansSC-Regular-61" transform="translate(4221.699158 0)"/>
    <use xlink:href="#NotoSansSC-Regular-74" transform="translate(4278.099152 0)"/>
    <use xlink:href="#NotoSansSC-Regular-65" transform="translate(4315.799149 0)"/>
    <use xlink:href="#NotoSansSC-Regular-2e" transform="translate(4371.199142 0)"/>
   </g>
  </g>
  <g id="text_12">
   <!-- Data: docs/benchmark-data/bit-jev-autodl-case-2026-09-27.json -->
   <g style="fill: #636b75" transform="translate(75.6 495.072) scale(0.085 -0.085)">
    <defs>
     <path id="NotoSansSC-Regular-6a" d="M 230 -1555
C 915 -1555 1178 -1107 1178 -397
L 1178 3475
L 595 3475
L 595 -397
C 595 -819 512 -1082 166 -1082
C 38 -1082 -77 -1050 -166 -1018
L -282 -1466
C -160 -1510 19 -1555 230 -1555
z
M 883 4192
C 1107 4192 1267 4346 1267 4582
C 1267 4806 1107 4960 883 4960
C 653 4960 493 4806 493 4582
C 493 4346 653 4192 883 4192
z
" transform="scale(0.015625)"/>
    </defs>
    <use xlink:href="#NotoSansSC-Regular-44"/>
    <use xlink:href="#NotoSansSC-Regular-61" transform="translate(68.699982 0)"/>
    <use xlink:href="#NotoSansSC-Regular-74" transform="translate(125.099976 0)"/>
    <use xlink:href="#NotoSansSC-Regular-61" transform="translate(162.799973 0)"/>
    <use xlink:href="#NotoSansSC-Regular-3a" transform="translate(219.199966 0)"/>
    <use xlink:href="#NotoSansSC-Regular-20" transform="translate(246.999954 0)"/>
    <use xlink:href="#NotoSansSC-Regular-64" transform="translate(269.399948 0)"/>
    <use xlink:href="#NotoSansSC-Regular-6f" transform="translate(331.399933 0)"/>
    <use xlink:href="#NotoSansSC-Regular-63" transform="translate(391.999924 0)"/>
    <use xlink:href="#NotoSansSC-Regular-73" transform="translate(442.899918 0)"/>
    <use xlink:href="#NotoSansSC-Regular-2f" transform="translate(489.699905 0)"/>
    <use xlink:href="#NotoSansSC-Regular-62" transform="translate(528.899902 0)"/>
    <use xlink:href="#NotoSansSC-Regular-65" transform="translate(590.69989 0)"/>
    <use xlink:href="#NotoSansSC-Regular-6e" transform="translate(646.099884 0)"/>
    <use xlink:href="#NotoSansSC-Regular-63" transform="translate(707.199875 0)"/>
    <use xlink:href="#NotoSansSC-Regular-68" transform="translate(758.099869 0)"/>
    <use xlink:href="#NotoSansSC-Regular-6d" transform="translate(818.799866 0)"/>
    <use xlink:href="#NotoSansSC-Regular-61" transform="translate(911.399857 0)"/>
    <use xlink:href="#NotoSansSC-Regular-72" transform="translate(967.79985 0)"/>
    <use xlink:href="#NotoSansSC-Regular-6b" transform="translate(1006.599838 0)"/>
    <use xlink:href="#NotoSansSC-Regular-2d" transform="translate(1061.799835 0)"/>
    <use xlink:href="#NotoSansSC-Regular-64" transform="translate(1096.499832 0)"/>
    <use xlink:href="#NotoSansSC-Regular-61" transform="translate(1158.499817 0)"/>
    <use xlink:href="#NotoSansSC-Regular-74" transform="translate(1214.899811 0)"/>
    <use xlink:href="#NotoSansSC-Regular-61" transform="translate(1252.599808 0)"/>
    <use xlink:href="#NotoSansSC-Regular-2f" transform="translate(1308.999802 0)"/>
    <use xlink:href="#NotoSansSC-Regular-62" transform="translate(1348.199799 0)"/>
    <use xlink:href="#NotoSansSC-Regular-69" transform="translate(1409.999786 0)"/>
    <use xlink:href="#NotoSansSC-Regular-74" transform="translate(1437.499771 0)"/>
    <use xlink:href="#NotoSansSC-Regular-2d" transform="translate(1475.199768 0)"/>
    <use xlink:href="#NotoSansSC-Regular-6a" transform="translate(1509.899765 0)"/>
    <use xlink:href="#NotoSansSC-Regular-65" transform="translate(1537.499756 0)"/>
    <use xlink:href="#NotoSansSC-Regular-76" transform="translate(1592.89975 0)"/>
    <use xlink:href="#NotoSansSC-Regular-2d" transform="translate(1644.999741 0)"/>
    <use xlink:href="#NotoSansSC-Regular-61" transform="translate(1679.699738 0)"/>
    <use xlink:href="#NotoSansSC-Regular-75" transform="translate(1736.099731 0)"/>
    <use xlink:href="#NotoSansSC-Regular-74" transform="translate(1796.799728 0)"/>
    <use xlink:href="#NotoSansSC-Regular-6f" transform="translate(1834.499725 0)"/>
    <use xlink:href="#NotoSansSC-Regular-64" transform="translate(1895.099716 0)"/>
    <use xlink:href="#NotoSansSC-Regular-6c" transform="translate(1957.099701 0)"/>
    <use xlink:href="#NotoSansSC-Regular-2d" transform="translate(1985.599686 0)"/>
    <use xlink:href="#NotoSansSC-Regular-63" transform="translate(2020.299683 0)"/>
    <use xlink:href="#NotoSansSC-Regular-61" transform="translate(2071.199677 0)"/>
    <use xlink:href="#NotoSansSC-Regular-73" transform="translate(2127.59967 0)"/>
    <use xlink:href="#NotoSansSC-Regular-65" transform="translate(2174.399658 0)"/>
    <use xlink:href="#NotoSansSC-Regular-2d" transform="translate(2229.799652 0)"/>
    <use xlink:href="#NotoSansSC-Regular-32" transform="translate(2264.499649 0)"/>
    <use xlink:href="#NotoSansSC-Regular-30" transform="translate(2319.999634 0)"/>
    <use xlink:href="#NotoSansSC-Regular-32" transform="translate(2375.499619 0)"/>
    <use xlink:href="#NotoSansSC-Regular-36" transform="translate(2430.999603 0)"/>
    <use xlink:href="#NotoSansSC-Regular-2d" transform="translate(2486.499588 0)"/>
    <use xlink:href="#NotoSansSC-Regular-30" transform="translate(2521.199585 0)"/>
    <use xlink:href="#NotoSansSC-Regular-39" transform="translate(2576.69957 0)"/>
    <use xlink:href="#NotoSansSC-Regular-2d" transform="translate(2632.199554 0)"/>
    <use xlink:href="#NotoSansSC-Regular-32" transform="translate(2666.899551 0)"/>
    <use xlink:href="#NotoSansSC-Regular-37" transform="translate(2722.399536 0)"/>
    <use xlink:href="#NotoSansSC-Regular-2e" transform="translate(2777.899521 0)"/>
    <use xlink:href="#NotoSansSC-Regular-6a" transform="translate(2805.699509 0)"/>
    <use xlink:href="#NotoSansSC-Regular-73" transform="translate(2833.2995 0)"/>
    <use xlink:href="#NotoSansSC-Regular-6f" transform="translate(2880.099487 0)"/>
    <use xlink:href="#NotoSansSC-Regular-6e" transform="translate(2940.699478 0)"/>
   </g>
  </g>
 </g>
 <defs>
  <clipPath id="pac84963cb5">
   <rect x="75.6" y="155.52" width="871.92" height="243.648"/>
  </clipPath>
 </defs>
</svg>
